P2
# this is a PGM image
3 7
15
0  0  0  
0  3  3  
0  3  0  
0  3  3  
0  3  0  
0  3  0  
0  0  0  