P2
3 3
15
0  0  0 
0  3  3 
0  3  0 
